<svg id="Layer_1" data-name="Layer 1" xmlns="http://www.w3.org/2000/svg" viewBox="0 0 588.87 329.97"><defs><style>.cls-1{fill:#25a953;}.cls-2{fill:#3ab8ea;}.cls-3{fill:#fdc93a;}</style></defs><title>logo_ourcounty</title><path class="cls-1" d="M293.92,284.55a537.53,537.53,0,0,1,120.44,13.54,123,123,0,0,0-239.79-.24A537.94,537.94,0,0,1,293.92,284.55Z"/><path class="cls-2" d="M294.44,99.55c-96.77,0-175.5,78.73-175.5,175.5a175.61,175.61,0,0,0,4,37.29q12.4-4.17,25-7.7A148,148,0,0,1,441,305q12.53,3.56,24.88,7.71a175.89,175.89,0,0,0,4.06-37.61C469.94,178.28,391.21,99.55,294.44,99.55Z"/><path class="cls-3" d="M182.05,111.23a199,199,0,0,1,18.8-11.43L159,27.25a11,11,0,1,0-19.05,11Z"/><path class="cls-3" d="M294.44,76.45a198.16,198.16,0,0,1,80,16.77l24.95-68.56a235.81,235.81,0,0,0-210,0l25,68.55A198.36,198.36,0,0,1,294.44,76.45Z"/><path class="cls-3" d="M154.38,134.1a200.31,200.31,0,0,1,16.47-14.61L77.86,8.68A11,11,0,1,0,61,22.82Z"/><path class="cls-3" d="M434.5,134.09,527.86,22.82A11,11,0,1,0,511,8.68l-93,110.8A202.19,202.19,0,0,1,434.5,134.09Z"/><path class="cls-3" d="M406.83,111.22l42.13-73a11,11,0,1,0-19-11L388,99.8A197,197,0,0,1,406.83,111.22Z"/><path class="cls-3" d="M145,144.11,18.07,37.64A11,11,0,1,0,3.93,54.49L131.36,161.41A197.81,197.81,0,0,1,145,144.11Z"/><path class="cls-3" d="M586.3,39a11,11,0,0,0-15.5-1.35L443.92,144.1a199.43,199.43,0,0,1,13.61,17.3L584.94,54.49A11,11,0,0,0,586.3,39Z"/><path class="cls-3" d="M490.15,239.23a200.58,200.58,0,0,1,3.07,26.83c.06,1.23.1,2.46.14,3.7,0,.21,0,.42,0,.63.05,1.83.08,3.66.08,5.49a199.16,199.16,0,0,1-5.11,45q11.06,4.32,21.87,9.09A234.68,234.68,0,0,0,530,235.5c0-1.1,0-2.19,0-3.28Z"/><path class="cls-3" d="M555.67,177.1l-75.26,27.4a198.4,198.4,0,0,1,6.7,21l76.09-27.69a11,11,0,0,0-7.53-20.68Z"/><path class="cls-3" d="M563.94,115.6l-99,57.16a200.48,200.48,0,0,1,10.31,19.45l99.7-57.56a11,11,0,0,0-11-19.05Z"/><path class="cls-3" d="M96,290c-.09-1.19-.17-2.39-.23-3.59s-.12-2.5-.16-3.75c0-.39,0-.79,0-1.18-.06-2-.1-4-.1-6a200.15,200.15,0,0,1,3.3-36.22l-39.75-7c0,1.1,0,2.18,0,3.28A234.63,234.63,0,0,0,78.68,330q10.81-4.79,21.89-9.1a198,198,0,0,1-4.51-29.74C96,290.74,96,290.37,96,290Z"/><path class="cls-3" d="M124,172.77l-99-57.17a11,11,0,1,0-11,19.05l99.71,57.57A195.08,195.08,0,0,1,124,172.77Z"/><path class="cls-3" d="M108.48,204.5,33.2,177.1a11,11,0,0,0-7.53,20.68l76.1,27.7A201,201,0,0,1,108.48,204.5Z"/></svg>